<svg width="168" height="44" viewBox="0 0 168 44" fill="none" xmlns="http://www.w3.org/2000/svg">
<path d="M144.631 0.00452168C143.214 0.0825217 142.225 0.204522 141.07 0.444522C132.859 2.15752 126.319 8.56552 124.43 16.7455C124.062 18.3315 123.9 19.7055 123.878 21.3805C123.855 23.1875 124.001 24.6805 124.373 26.3775C125.765 32.7415 130.004 38.1825 135.853 41.1085C138.315 42.3415 140.907 43.0675 143.685 43.3045C144.881 43.4065 146.304 43.3985 147.527 43.2845C153.111 42.7575 158.234 40.0905 161.916 35.7935C163.055 34.4645 164.04 32.9785 164.833 31.3955C166.013 29.0365 166.755 26.4625 167.012 23.8245C167.09 23.0205 167.104 22.6835 167.104 21.6855C167.104 20.6875 167.09 20.3505 167.012 19.5465C166.605 15.3595 164.998 11.4115 162.359 8.10952C161.533 7.07452 160.466 5.97752 159.46 5.12452C157.33 3.31952 154.886 1.94352 152.274 1.08052C150.542 0.508522 148.85 0.178522 146.901 0.0335217C146.619 0.0115217 144.894 -0.00947832 144.631 0.00452168ZM146.953 4.13252C149.3 4.35152 151.312 4.91552 153.305 5.91152C155.018 6.76652 156.519 7.85152 157.887 9.21952C160.737 12.0695 162.495 15.7315 162.941 19.7545C163.019 20.4515 163.035 20.7845 163.035 21.6865C163.035 22.9925 162.949 23.9175 162.714 25.1045C161.874 29.3775 159.486 33.1765 155.994 35.7995C153.582 37.6105 150.701 38.7825 147.734 39.1545C146.855 39.2665 146.603 39.2795 145.495 39.2795C144.381 39.2795 144.115 39.2635 143.244 39.1545C140.267 38.7765 137.415 37.6175 135.001 35.8075C134.249 35.2415 133.76 34.8155 133.069 34.1225C131.687 32.7365 130.626 31.2545 129.751 29.4875C128.882 27.7275 128.322 25.8705 128.075 23.9125C127.969 23.0685 127.952 22.7635 127.952 21.6865C127.952 20.6095 127.97 20.3045 128.075 19.4585C128.398 16.9075 129.261 14.4925 130.637 12.2945C132.197 9.80252 134.454 7.66952 137.036 6.24652C139.224 5.03852 141.72 4.29652 144.167 4.12452C144.337 4.11252 144.517 4.09952 144.568 4.09552C144.619 4.09152 145.095 4.08952 145.627 4.09352C146.326 4.09752 146.692 4.10752 146.952 4.13252H146.953Z" fill="black"/>
<path d="M145.947 12.0915C145.127 13.0015 144.455 13.7595 144.455 13.7725C144.455 13.7855 145.763 15.0365 147.36 16.5505L150.265 19.3025L150.063 19.3085C149.816 19.3165 135.341 19.2555 133.865 19.2395L132.812 19.2295V23.6475L150.024 23.6595L147.28 26.3295C145.773 27.7995 144.538 29.0135 144.538 29.0265C144.538 29.0575 147.59 32.2835 147.613 32.2755C147.627 32.2695 149.999 29.9735 153.828 26.2585C157.056 23.1265 157.762 22.4335 157.858 22.3065C157.987 22.1365 158.107 21.8835 158.146 21.6955C158.185 21.5135 158.175 21.2195 158.124 21.0285C158.073 20.8445 157.907 20.5135 157.762 20.3175C157.558 20.0395 156.417 18.9125 154.248 16.8455C152.504 15.1815 147.481 10.4505 147.448 10.4385C147.442 10.4345 146.765 11.1795 145.947 12.0915Z" fill="black"/>
<path d="M61.463 13.4075C60.126 13.4485 58.977 13.6585 58.145 14.0145C56.861 14.5645 56.004 15.4125 55.544 16.5905C55.374 17.0255 55.291 17.4325 55.274 17.9255C55.219 19.4505 55.883 20.6995 57.21 21.5645C58.122 22.1595 59.367 22.6355 61.052 23.0325C62.516 23.3785 63.18 23.6005 63.608 23.8835C63.886 24.0695 64.144 24.3965 64.252 24.6975C64.291 24.8125 64.299 24.8715 64.299 25.1185C64.299 25.3785 64.293 25.4195 64.244 25.5565C64.097 25.9615 63.794 26.2885 63.375 26.4965C62.982 26.6925 62.545 26.7685 61.979 26.7455C61.223 26.7165 60.673 26.4985 60.202 26.0445C59.775 25.6355 59.527 25.1045 59.388 24.3085L59.343 24.0505L59.202 24.0585C58.589 24.0875 54.69 24.3425 54.68 24.3545C54.658 24.3745 54.727 24.8755 54.795 25.2195C55.026 26.3605 55.511 27.3215 56.279 28.1595C56.99 28.9365 57.994 29.4225 59.428 29.6825C60.589 29.8955 62.202 29.9525 63.435 29.8255C65.228 29.6395 66.579 29.0695 67.567 28.0815C68.307 27.3415 68.806 26.4135 68.992 25.4335C69.213 24.2765 69.051 23.1395 68.53 22.2015C68.005 21.2585 67.066 20.5185 65.715 19.9855C64.856 19.6465 63.568 19.2825 62.049 18.9445C60.792 18.6665 60.409 18.5295 60.111 18.2475C60.007 18.1515 59.95 18.0755 59.896 17.9615C59.822 17.8105 59.818 17.7995 59.82 17.5995C59.822 17.4355 59.834 17.3645 59.873 17.2585C60.1 16.6475 60.734 16.3405 61.689 16.3815C62.382 16.4105 62.867 16.5875 63.243 16.9455C63.556 17.2445 63.76 17.6425 63.889 18.2025C63.914 18.3175 63.94 18.4175 63.946 18.4235C63.956 18.4335 68.55 18.1635 68.562 18.1515C68.574 18.1395 68.531 17.8525 68.47 17.5465C68.19 16.1505 67.528 15.0955 66.518 14.4385C65.365 13.6885 63.674 13.3425 61.462 13.4085L61.463 13.4075Z" fill="black"/>
<path d="M0 17.6055L5.006 17.6175L5.016 29.6095H9.929V17.6065H14.922V13.6815H0V17.6055Z" fill="black"/>
<path d="M16.278 29.6085H21.191V23.1765H26.554V29.6085H31.487V13.6815H26.554V19.2505H21.191V13.6815H16.278V29.6085Z" fill="black"/>
<path d="M33.851 29.6085H47.251V26.0125H38.783V22.8665H46.429L46.417 19.6085L38.783 19.5985V17.0695H47.024V13.6795H33.851V29.6085Z" fill="black"/>
<path d="M70.661 29.6085H84.061V26.0125H75.593V22.8665H83.219V19.5995H75.593V17.0705H83.814V13.6805H70.66L70.661 29.6085Z" fill="black"/>
<path d="M85.85 29.6085H90.473L90.483 20.8925L96.403 29.5985L101.059 29.6105V13.6815H96.414L96.402 22.4675L90.442 13.6815H85.85V29.6085Z" fill="black"/>
<path d="M103.484 29.6105L107.526 29.6045C111.515 29.5965 111.574 29.5965 111.879 29.5535C112.959 29.4005 113.838 29.1855 114.412 28.9335C114.982 28.6825 115.59 28.2545 116.103 27.7395C116.839 27.0015 117.432 25.9975 117.726 24.9935C117.933 24.2815 118.049 23.4605 118.098 22.3455C118.196 20.0945 117.806 18.1155 116.996 16.7295C116.364 15.6525 115.575 14.9075 114.51 14.3805C113.717 13.9895 112.885 13.7875 111.715 13.7035C111.537 13.6895 109.91 13.6815 107.456 13.6815H103.484V29.6105ZM109.934 17.2985C110.488 17.3255 110.83 17.3845 111.242 17.5175C111.951 17.7485 112.463 18.2065 112.741 18.8545C113.039 19.5535 113.17 20.4325 113.17 21.7375C113.17 23.1215 113.033 24.0135 112.732 24.6185C112.46 25.1645 112.07 25.5505 111.616 25.7265C111.095 25.9265 110.514 25.9905 109.203 25.9905H108.397V21.6485C108.397 19.2585 108.403 17.2975 108.411 17.2915C108.433 17.2695 109.484 17.2735 109.936 17.2975L109.934 17.2985Z" fill="black"/>
</svg>
